<?xml version="1.0" encoding="utf-8"?>
<!-- Generator: Adobe Illustrator 19.0.0, SVG Export Plug-In . SVG Version: 6.00 Build 0)  -->
<svg version="1.1" id="Layer_1" xmlns="http://www.w3.org/2000/svg" xmlns:xlink="http://www.w3.org/1999/xlink" x="0px" y="0px"
	 viewBox="0 0 305 60" style="enable-background:new 0 0 305 60;" xml:space="preserve">
<style type="text/css">
	.st0{fill:#1D1D1B;}
</style>
<g id="XMLID_2_">
	<path id="XMLID_18_" class="st0" d="M282.1,27.8c1.3,4.9,5.5,7.7,10.1,7.7c4,0,8.3-2.1,8.3-6.5c0-7.9-19.3-10.3-19.3-19.9
		c0-4.5,4.6-7.9,10.7-7.9c5,0,6.1,1.4,8.2,1.4c0.5,0,0.7-0.1,1.1-0.5h1l1,6.9h-1c-1.7-3.9-5.5-6.5-9.7-6.5c-4,0-6.7,2.1-6.7,5.1
		c0,7.8,19.3,9.8,19.3,19.9c0,5.4-5.2,9.4-12.2,9.4c-3.3,0-7.5-1.5-8.3-1.5c-0.5,0-1,0.3-1.2,0.6h-1l-1.3-8.3H282.1z M270.2,11.6
		c3-1.6,4.6-3.5,4.6-5.5c0-0.7-0.2-1.1-0.8-1.1c-0.5,0-0.8,0.2-1.4,0.2c-1.6,0-2.7-1-2.7-2.5c0-1.5,1.4-2.7,3.2-2.7
		c2.4,0,4.2,1.9,4.2,4.5c0,3.4-2.7,6.7-6.7,8L270.2,11.6z M260.9,23.8h-1.1c-0.5-3.9-1.6-4.3-4.1-4.3h-10.1v11.7c0,2.5,1,3,3.2,3
		h9.2c4.2,0,5.5-1.5,7-6.2h1.1l-1,8.1h-31.9v-1h1.7c4.8,0,5.6-1.2,5.6-4.5V7.5c0-3.1-0.8-4.4-4.8-4.4h-1.3v-1h28.8l0.5,7.6h-1.1
		c-0.8-4.6-2.3-5.6-4.4-5.6h-12.7v13.5h10.7c2.2,0,3.2-0.9,3.5-4.1h1.1V23.8z M230.4,36.1h-14.6v-1c3.7-0.2,4.5-1,4.5-4.7V7.1
		c0-3-1.1-3.8-4.5-3.9v-1h14.6v1c-3.8,0-5.1,0.8-5.1,4.4v23.2c0,3.2,1,4.3,5.1,4.3V36.1z M195.3,31.1c0,3,1.1,4,4.7,4h2.2v1h-18.9
		v-1h2.2c3.7,0,4.7-1,4.7-4v-27h-10.4c-2.4,0-3.5,1.3-4.4,6.1h-1.1l1-8.9h1.1c0.1,0.3,0.3,0.5,0.7,0.7c0.4,0.1,0.8,0.2,1.2,0.2h28.9
		c0.8,0,1.7-0.2,1.9-0.8h1.1l1,8.9h-1.1c-0.9-4.8-2-6.1-4.4-6.1h-10.4V31.1z M149.3,27.8c1.3,4.9,5.5,7.7,10.1,7.7
		c4,0,8.3-2.1,8.3-6.5c0-7.9-19.3-10.3-19.3-19.9c0-4.5,4.6-7.9,10.7-7.9c5,0,6.1,1.4,8.2,1.4c0.5,0,0.7-0.1,1.1-0.5h1l1,6.9h-1
		c-1.7-3.9-5.5-6.5-9.7-6.5c-4,0-6.7,2.1-6.7,5.1c0,7.8,19.3,9.8,19.3,19.9c0,5.4-5.2,9.4-12.2,9.4c-3.3,0-7.5-1.5-8.3-1.5
		c-0.5,0-1,0.3-1.2,0.6h-1l-1.3-8.3H149.3z M142.8,36.1h-14.6v-1c3.7-0.2,4.5-1,4.5-4.7V7.1c0-3-1.1-3.8-4.5-3.9v-1h14.6v1
		c-3.8,0-5.1,0.8-5.1,4.4v23.2c0,3.2,1,4.3,5.1,4.3V36.1z M98.7,20.2c0.8,0.2,2.1,0.4,3.2,0.4c6.5,0,10.7-4,10.7-9.6
		c0-4.3-1.9-8.5-9.8-8.5c-1.4,0-2.7,0-4.1,0.2V20.2z M98.7,21.3v9.6c0,3.1,1,4.2,4.8,4.2h2v1H88.8v-1h0.8c3.1,0,4-0.6,4-3.2V6
		c0-2-0.7-2.9-2.8-2.9h-3v-1c1.7-0.1,4.6-0.2,7.6-0.3c2.9-0.1,5.8-0.2,7.4-0.2c12.5,0,15.4,5.5,15.4,9.7c0,6.4-5.6,8.8-7.1,9.2
		l7.1,9.8c0.8,1.2,2.3,2.8,3.3,3.8c0.8,0.8,1.6,1.2,3.4,1.7v1h-0.8c-5.8,0-9.3-2.7-15.5-12c-1.1-1.6-1.8-2.5-2.5-3.2
		C106.2,21.6,101.9,22,98.7,21.3 M51,19.9v10.4c0,3.6,0.8,4.8,4.8,4.8H56v1H41v-1h0.4c3.5,0,4.7-0.9,4.7-4V7c0-2.8-1-3.7-4.3-3.9v-1
		H56v1c-4.3,0-5,1-5,5.3v9.5h23.5V7.1c0-2.9-1-4-4.7-4h-1.1v-1h15.4v1c-3.6,0.1-4.6,1.1-4.6,4.5v22.7c0,3.9,1.2,4.8,4.8,4.8h0.6v1
		H68v-1h1.9c3.9,0,4.7-1.3,4.7-4.1V19.9H51z M35.6,11c-2-5.1-7.1-8.4-13.7-8.4c-10,0-16.3,6.6-16.3,15.8c0,9.9,7.8,17.2,16.9,17.2
		c4.7,0,10.6-1.5,14.6-8.1h1.1c-0.8,2.5-2.4,5.9-3.8,8C30.7,35,28,37,20.9,37C8.8,37,0,29.6,0,19.5C0,8.9,9,1.3,21.5,1.3
		c7.6,0,10.8,2.2,12.7,2.2c0.7,0,1-0.2,1.1-0.3h0.9l0.5,7.9H35.6z"/>
	<polygon id="XMLID_17_" class="st0" points="108.2,47.5 115.5,47.5 115.5,49.1 110.2,49.1 110.2,52.3 115.2,52.3 115.2,53.9 
		110.2,53.9 110.2,57.2 115.6,57.2 115.6,58.8 108.2,58.8 	"/>
	<path id="XMLID_14_" class="st0" d="M117.8,47.5h3.7c3.2,0,5.5,1.6,5.5,5.5c0,3.9-2.2,5.8-5.5,5.8h-3.8V47.5z M121.5,57.2
		c2.1,0,3.5-1.1,3.5-4.2c0-2.9-1.4-4-3.4-4h-1.7v8.1H121.5z"/>
	<path id="XMLID_13_" class="st0" d="M129,47.5h2V54c0,0.9,0,1.9,0.5,2.5c0.5,0.6,1.1,0.8,2,0.8c0.9,0,1.6-0.2,2-0.8
		c0.5-0.6,0.4-1.6,0.4-2.5v-6.6h2v7.4c0,2.9-1.8,4.1-4.5,4.1c-2.7,0-4.4-1.2-4.4-4.1V47.5z"/>
	<path id="XMLID_12_" class="st0" d="M142.1,53.2c0,2.7,1.1,4.3,2.9,4.3c1.6,0,2.3-1,2.5-2.4h2.1c-0.1,2.3-1.8,3.9-4.5,3.9
		c-3.3,0-5.1-2.1-5.1-5.8c0-3.7,2-5.9,5.1-5.9c2.4,0,4.3,1.3,4.5,3.8h-2.1c-0.1-1.3-1-2.3-2.4-2.3C143.2,48.9,142.1,50.4,142.1,53.2
		"/>
	<path id="XMLID_9_" class="st0" d="M157.6,56h-4.3l-0.9,2.8h-2l3.9-11.3h2.3l4,11.3h-2.1L157.6,56z M155,50.9l-1.2,3.5h3.2
		l-1.2-3.5c-0.3-0.9-0.4-1.6-0.4-1.6h0C155.4,49.4,155.3,50,155,50.9"/>
	<polygon id="XMLID_8_" class="st0" points="169.5,49.1 165.9,49.1 165.9,58.8 163.9,58.8 163.9,49.1 160.4,49.1 160.4,47.5 
		169.5,47.5 	"/>
	<rect id="XMLID_7_" x="171.1" y="47.5" class="st0" width="2.1" height="11.3"/>
	<path id="XMLID_4_" class="st0" d="M180.4,47.3c3.1,0,5.2,2,5.2,5.8c0,3.8-2.2,5.9-5.2,5.9c-3.2,0-5.2-2-5.2-5.9
		C175.2,49.3,177.5,47.3,180.4,47.3 M183.5,53.2c0-2.9-1.2-4.3-3-4.3c-1.8,0-3,1.4-3,4.3c0,2.8,1.1,4.3,3,4.3
		C182.3,57.5,183.5,56,183.5,53.2"/>
	<path id="XMLID_3_" class="st0" d="M187.7,47.5h2.3l4.1,6.9c0.5,0.8,0.7,1.5,0.7,1.5h0v-8.4h1.9v11.3h-2.3l-4.2-7
		c-0.5-0.9-0.8-1.5-0.8-1.5h0v8.5h-1.9V47.5z"/>
</g>
</svg>
